<svg width="700" height="700" viewBox="0 0 700 700" fill="none" xmlns="http://www.w3.org/2000/svg">
<rect width="700" height="700" fill="#F5F5F5"/>
<rect width="700" height="700" fill="white"/>
<path fill-rule="evenodd" clip-rule="evenodd" d="M290.206 504.806L350 608.373L409.794 504.806H526.534V472.638H428.367L614.318 150.561L85.6821 150.561L271.633 472.638H173.466V504.806H290.206Z" fill="#42BBFF"/>
<path fill-rule="evenodd" clip-rule="evenodd" d="M290.206 504.806L350 608.373L409.794 504.806H526.534V472.638H428.367L614.318 150.561L85.6821 150.561L271.633 472.638H173.466V504.806H290.206Z" fill="url(#paint0_linear_0_1)" fill-opacity="0.2"/>
<path fill-rule="evenodd" clip-rule="evenodd" d="M329.195 195.309C293.958 209.882 268 259.738 268 319C268 389.692 304.936 447 350.5 447C351.135 447 351.769 446.989 352.4 446.967L352.654 445.616C360.066 406.125 351.824 379.2 341.428 354.287C339.733 350.225 337.95 346.164 336.152 342.072C327.005 321.248 317.5 299.609 317.5 272.835C317.5 240.382 323.231 213.524 329.195 195.309ZM368.158 444.061C405.236 431.517 433 380.289 433 319C433 248.308 396.064 191 350.5 191C349.204 191 347.914 191.046 346.632 191.138C340.442 206.719 332.5 235.657 332.5 272.835C332.5 296.198 340.532 314.578 349.594 335.313C351.463 339.591 353.376 343.968 355.272 348.51C365.911 374.007 374.927 402.93 368.158 444.061Z" fill="#D9D9D9"/>
<defs>
<linearGradient id="paint0_linear_0_1" x1="86" y1="151" x2="551" y2="446" gradientUnits="userSpaceOnUse">
<stop offset="0.484375" stop-color="#46FF42"/>
<stop offset="0.791667" stop-color="#356843" stop-opacity="0.95"/>
<stop offset="1" stop-color="#000303" stop-opacity="0"/>
</linearGradient>
</defs>
</svg>
